<svg width="92" height="92" viewBox="0 0 92 92" fill="none" xmlns="http://www.w3.org/2000/svg">
<g filter="url(#filter0_d_3115_1536)">
<rect x="8" y="8" width="76" height="76" rx="38" fill="white" shape-rendering="crispEdges"/>
<circle cx="46" cy="46" r="24" fill="white"/>
<path fill-rule="evenodd" clip-rule="evenodd" d="M28.7393 44.164L36.1169 26.6272L57.0737 29.0416L61.3649 41.9848L59.2193 59.8888C56.1353 63.1984 54.1673 64.852 53.3177 64.852C52.4681 64.852 46.0313 63.6784 34.0049 61.3312L28.7417 48.3208L28.7393 44.164Z" fill="#F9F9F9"/>
<path fill-rule="evenodd" clip-rule="evenodd" d="M56.056 59.9056H50.9464V51.1096C50.9464 49.7008 49.8064 48.556 48.3976 48.556H48.3952H41.0512C38.2312 48.556 35.944 46.2688 35.944 43.4488V32.0968H41.0512V40.8952C41.0512 42.304 42.1936 43.4488 43.6024 43.4488H50.9464C53.7664 43.4512 56.0512 45.736 56.0536 48.556L56.056 59.9056ZM41.2288 59.9056H36.1192V51.328C38.9392 51.328 41.2264 53.6128 41.2264 56.4352L41.2288 59.9056ZM50.7712 32.0944H55.8784V40.6768C53.056 40.6768 50.7712 38.3896 50.7712 35.5696V32.0944ZM46 22C32.7448 22 22 32.7472 22 46C22 59.2528 32.7448 70 46 70C59.2552 70 70 59.2552 70 46C70 32.7448 59.2552 22 46 22Z" fill="#005FFA"/>
</g>
<defs>
<filter id="filter0_d_3115_1536" x="0" y="0" width="92" height="92" filterUnits="userSpaceOnUse" color-interpolation-filters="sRGB">
<feFlood flood-opacity="0" result="BackgroundImageFix"/>
<feColorMatrix in="SourceAlpha" type="matrix" values="0 0 0 0 0 0 0 0 0 0 0 0 0 0 0 0 0 0 127 0" result="hardAlpha"/>
<feOffset/>
<feGaussianBlur stdDeviation="4"/>
<feComposite in2="hardAlpha" operator="out"/>
<feColorMatrix type="matrix" values="0 0 0 0 0 0 0 0 0 0 0 0 0 0 0 0 0 0 0.06 0"/>
<feBlend mode="normal" in2="BackgroundImageFix" result="effect1_dropShadow_3115_1536"/>
<feBlend mode="normal" in="SourceGraphic" in2="effect1_dropShadow_3115_1536" result="shape"/>
</filter>
</defs>
</svg>
